<?xml version="1.0" encoding="UTF-8" standalone="no"?>
<!-- Created with Inkscape (http://www.inkscape.org/) -->

<svg
   xmlns:dc="http://purl.org/dc/elements/1.1/"
   xmlns:cc="http://creativecommons.org/ns#"
   xmlns:rdf="http://www.w3.org/1999/02/22-rdf-syntax-ns#"
   xmlns:svg="http://www.w3.org/2000/svg"
   xmlns="http://www.w3.org/2000/svg"
   xmlns:sodipodi="http://sodipodi.sourceforge.net/DTD/sodipodi-0.dtd"
   xmlns:inkscape="http://www.inkscape.org/namespaces/inkscape"
   width="420"
   height="420"
   viewBox="0 0 420 420.00001"
   id="svg2"
   version="1.1"
   inkscape:version="0.91 r13725"
   sodipodi:docname="logo.svg"
   inkscape:export-xdpi="27.43"
   inkscape:export-ydpi="27.43">
  <defs
     id="defs4">
    <pattern
       y="0"
       x="0"
       height="6"
       width="6"
       patternUnits="userSpaceOnUse"
       id="WMFhbasepattern" />
  </defs>
  <sodipodi:namedview
     id="base"
     pagecolor="#ffffff"
     bordercolor="#666666"
     borderopacity="1.0"
     inkscape:pageopacity="0.0"
     inkscape:pageshadow="2"
     inkscape:zoom="0.35"
     inkscape:cx="-112.14286"
     inkscape:cy="520"
     inkscape:document-units="px"
     inkscape:current-layer="layer1"
     showgrid="false"
     units="px"
     inkscape:window-width="1920"
     inkscape:window-height="1017"
     inkscape:window-x="-8"
     inkscape:window-y="-8"
     inkscape:window-maximized="1" />
  <metadata
     id="metadata7">
    <rdf:RDF>
      <cc:Work
         rdf:about="">
        <dc:format>image/svg+xml</dc:format>
        <dc:type
           rdf:resource="http://purl.org/dc/dcmitype/StillImage" />
        <dc:title></dc:title>
      </cc:Work>
    </rdf:RDF>
  </metadata>
  <g
     inkscape:label="Layer 1"
     inkscape:groupmode="layer"
     id="layer1"
     transform="translate(0,-632.36214)">
    <g
       id="g4195"
       style="fill:#445500"
       transform="translate(-2.8571429,598.28571)">
      <path
         inkscape:connector-curvature="0"
         id="path4151"
         d="m 369.3975,234.93927 -37.94398,121.67 -37.045,-11.552 37.945,-121.82 z"
         style="fill:#445500;fill-opacity:1;fill-rule:evenodd;stroke:none" />
      <path
         inkscape:connector-curvature="0"
         id="path4153"
         d="m 204.12252,134.12227 -101.3844,77.263 -23.546403,-30.905 101.384803,-77.2632 z"
         style="fill:#445500;fill-opacity:1;fill-rule:evenodd;stroke:none" />
      <path
         inkscape:connector-curvature="0"
         id="path4155"
         d="m 94.939315,227.58827 38.094205,121.82 -37.044306,11.552 -38.0943,-121.67 z"
         style="fill:#445500;fill-opacity:1;fill-rule:evenodd;stroke:none" />
      <path
         inkscape:connector-curvature="0"
         id="path4157"
         d="m 142.48252,368.61127 0,38.857 127.48,0 0,-38.857 -127.48,0 z"
         style="fill:#445500;fill-opacity:1;fill-rule:evenodd;stroke:none" />
      <path
         inkscape:connector-curvature="0"
         id="path4159"
         d="m 226.31952,136.67267 101.234,77.4126 23.697,-30.905 -101.385,-77.4128 z"
         style="fill:#445500;fill-opacity:1;fill-rule:evenodd;stroke:none" />
    </g>
    <g
       id="g4188"
       style="fill:#aad400"
       transform="translate(-2.8571429,598.28571)">
      <path
         inkscape:connector-curvature="0"
         id="path4141"
         d="m 149.68051,104.86737 0,-1.8003 0,-1.6503 0.14999,-1.6503 0.14999,-1.6502 0.14999,-1.650298 0.14999,-1.650299 0.30001,-1.650303 0.30001,-1.650298 0.30001,-1.500201 0.45,-1.650299 0.9,-3.000501 0.9,-3.150499 1.2,-3.000501 1.2,-2.850499 1.499,-2.850501 1.5,-2.7004 1.65,-2.7005 1.8,-2.5504 1.799,-2.4004 2.1,-2.4004 2.1,-2.2504 2.249,-2.2504 2.25,-2.1003 2.4,-1.9503 2.549,-1.8003 2.55,-1.6503 2.699,-1.65029 2.7,-1.35023 2.85,-1.35023 2.849,-1.2002 3,-1.05017 1.499,-0.45008 1.5,-0.45007 1.5,-0.30005 1.5,-0.45008 1.65,-0.30005 1.499,-0.15002 1.65,-0.30005 1.65,-0.150029 1.5,-0.150025 1.649,-0.150025 1.65,0 1.65,-0.150026 1.65,0.150026 1.649,0 1.65,0.150025 1.5,0.150025 1.65,0.150029 1.649,0.30005 1.5,0.15002 1.65,0.30005 1.5,0.45008 1.499,0.30005 1.5,0.45007 1.5,0.45008 2.999,1.05017 2.85,1.2002 2.85,1.35023 2.699,1.35023 2.7,1.65029 2.549,1.6503 2.55,1.8003 2.4,1.9503 2.249,2.1003 2.25,2.2504 2.1,2.2504 2.099,2.4004 1.8,2.4004 1.8,2.5504 1.65,2.7005 1.499,2.7004 1.5,2.850501 1.2,2.850499 1.2,3.000501 0.9,3.150499 0.899,3.000501 0.45,1.650299 0.30002,1.500201 0.30001,1.650298 0.30001,1.650303 0.14999,1.650299 0.14999,1.650298 0.14998,1.6502 0.14999,1.6503 0,1.6503 0,1.6503 0,1.8003 0,1.6502 -0.14999,1.6503 -0.14998,1.6503 -0.14999,1.6503 -0.14999,1.6502 -0.30001,1.6503 -0.30001,1.6503 -0.30002,1.5002 -0.45,1.6503 -0.899,3.0005 -0.9,3.1506 -1.2,3.0005 -1.2,2.8504 -1.5,2.8505 -1.499,2.7007 -1.65,2.7 -1.8,2.551 -1.8,2.4 -2.099,2.4 -2.1,2.401 -2.25,2.1 -2.249,2.101 -2.4,1.95 -2.55,1.8 -2.549,1.65 -2.7,1.651 -2.699,1.35 -2.85,1.35 -2.85,1.2 -2.999,1.051 -1.5,0.45 -1.5,0.45 -1.499,0.30001 -1.65,0.45 -1.5,0.30002 -1.5,0.14998 -1.649,0.30002 -1.65,0.14998 -1.5,0.14999 -1.65,0.14999 -1.649,0 -1.65,0 -1.65,0 -1.65,0 -1.649,-0.14999 -1.5,-0.14999 -1.65,-0.14998 -1.65,-0.30002 -1.499,-0.14998 -1.65,-0.30002 -1.5,-0.45 -1.5,-0.30001 -1.5,-0.45 -1.499,-0.45 -3,-1.051 -2.849,-1.2 -2.85,-1.35 -2.7,-1.35 -2.699,-1.651 -2.55,-1.65 -2.549,-1.8 -2.4,-1.95 -2.25,-2.101 -2.249,-2.1 -2.1,-2.401 -2.1,-2.4 -1.799,-2.4 -1.8,-2.551 -1.65,-2.7 -1.5,-2.7007 -1.499,-2.8505 -1.2,-2.8504 -1.2,-3.0005 -0.9,-3.1506 -0.9,-3.0005 -0.45,-1.6503 -0.30001,-1.5002 -0.30001,-1.6503 -0.30001,-1.6503 -0.14999,-1.6502 -0.14999,-1.6503 -0.14999,-1.6503 -0.14999,-1.6503 0,-1.6502 -0.14899,-1.8003 0.14899,0.14999 z"
         style="fill:#aad400;fill-opacity:1;fill-rule:evenodd;stroke:none" />
      <path
         inkscape:connector-curvature="0"
         id="path4143"
         d="m 291.25952,209.88527 0,-1.651 0,-1.65 0.14998,-1.8 0.14999,-1.65 0.14999,-1.651 0.14999,-1.65 0.30001,-1.5 0.30001,-1.651 0.30001,-1.65 0.45,-1.5 0.9,-3.151 0.899,-3 1.2,-3.001 1.2,-3 1.5,-2.851 1.5,-2.7 1.649,-2.7 1.8,-2.551 1.8,-2.4 2.099,-2.401 2.1,-2.25 2.25,-2.25 2.249,-2.101 2.4,-1.95 2.55,-1.8 2.549,-1.651 2.7,-1.65 2.699,-1.35 2.85,-1.35 2.85,-1.201 2.999,-1.05 1.5,-0.45 1.5,-0.45 1.499,-0.30001 1.5,-0.45 1.65,-0.30001 1.5,-0.30001 1.65,-0.14999 1.649,-0.14999 1.5,-0.14999 1.65,-0.14999 1.65,0 1.649,-0.14998 1.65,0.14998 1.65,0 1.65,0.14999 1.499,0.14999 1.65001,0.14999 1.65001,0.30001 1.49999,0.14999 1.64901,0.30001 1.49999,0.45 1.49999,0.30001 1.50002,0.45 1.499,0.45 3.00001,1.05 2.84999,1.201 2.849,1.35 2.7,1.35 2.69901,1.65 2.54997,1.651 2.54902,1.8 2.39999,1.95 2.25,2.101 2.24901,2.25 2.10001,2.25 2.09998,2.401 1.8,2.4 1.799,2.551 1.65002,2.7 1.49998,2.7 1.49999,2.851 1.19902,3 1.20001,3.001 0.9,3 0.9,3.151 0.45,1.5 0.30012,1.65 0.30012,1.651 0.30012,1.5 0.14988,1.65 0.14988,1.651 0.14988,1.65 0.14988,1.65 0,1.8 0,1.651 0,1.65 0,1.8 -0.14988,1.651 -0.14988,1.65 -0.14988,1.65 -0.14988,1.65 -0.30012,1.501 -0.30012,1.65 -0.30012,1.65 -0.45,1.5 -0.9,3.151 -0.9,3 -1.20001,3.001 -1.19902,3 -1.49999,2.851 -1.49998,2.7 -1.65002,2.701 -1.799,2.55 -1.8,2.401 -2.09998,2.4 -2.10001,2.25 -2.24901,2.251 -2.25,2.1 -2.39999,1.95 -2.54902,1.801 -2.54997,1.65 -2.69901,1.65 -2.7,1.351 -2.849,1.35 -2.84999,1.2 -3.00001,1.05 -1.499,0.45 -1.50002,0.45 -1.49999,0.30001 -1.65001,0.45 -1.49899,0.30101 -1.49999,0.14998 -1.65001,0.30002 -1.65001,0.14998 -1.499,0.14999 -1.65,0.14999 -1.65,0 -1.65,0 -1.649,0 -1.65,0 -1.65,-0.14999 -1.5,-0.14999 -1.649,-0.14998 -1.65,-0.30002 -1.5,-0.14998 -1.65,-0.30101 -1.5,-0.45 -1.499,-0.30001 -1.5,-0.45 -1.5,-0.45 -2.999,-1.05 -2.85,-1.2 -2.85,-1.35 -2.699,-1.351 -2.7,-1.65 -2.549,-1.65 -2.55,-1.801 -2.4,-1.95 -2.249,-2.1 -2.25,-2.251 -2.1,-2.25 -2.099,-2.4 -1.8,-2.401 -1.8,-2.55 -1.649,-2.701 -1.5,-2.7 -1.5,-2.851 -1.2,-3 -1.2,-3.001 -0.899,-3 -0.9,-3.151 -0.45,-1.5 -0.30001,-1.65 -0.30001,-1.65 -0.30001,-1.501 -0.14999,-1.65 -0.14999,-1.65 -0.14999,-1.65 -0.14998,-1.801 0,-1.65 -0.14999,-1.65 0.14999,0 z"
         style="fill:#aad400;fill-opacity:1;fill-rule:evenodd;stroke:none" />
      <path
         inkscape:connector-curvature="0"
         id="path4145"
         d="m 236.21752,383.01427 0,-1.801 0,-1.65 0.14999,-1.65 0.14998,-1.65 0.14999,-1.651 0.14999,-1.65 0.30001,-1.65 0.30001,-1.651 0.30002,-1.5 0.45,-1.65 0.9,-3.001 0.9,-3.15 1.2,-3.001 1.19899,-2.85 1.50001,-2.851 1.5,-2.7 1.65,-2.7 1.79899,-2.551 1.8,-2.4 2.10001,-2.401 2.099,-2.25 2.25,-2.25 2.25,-2.101 2.399,-1.95 2.54999,-1.8 2.55001,-1.651 2.699,-1.65 2.7,-1.35 2.849,-1.35 2.85,-1.201 3,-1.05 1.499,-0.45 1.49999,-0.45 1.50001,-0.30001 1.5,-0.45 1.64899,-0.30001 1.50001,-0.14999 1.64999,-0.30001 1.65001,-0.14999 1.499,-0.14999 1.65,-0.14999 1.65,0 1.65,-0.14998 1.649,0.14998 1.65,0 1.65,0.14999 1.5,0.14999 1.649,0.14999 1.64999,0.30001 1.50001,0.14999 1.64999,0.30001 1.49901,0.45 1.5,0.30001 1.5,0.45 1.5,0.45 2.999,1.05 2.85,1.201 2.84899,1.35 2.7,1.35 2.7,1.65 2.54901,1.651 2.55,1.8 2.399,1.95 2.25,2.101 2.25,2.25 2.099,2.25 2.1,2.401 1.8,2.4 1.8,2.551 1.649,2.7 1.5,2.7 1.5,2.851 1.2,2.85 1.2,3.001 0.899,3.15 0.9,3.001 0.45,1.65 0.30001,1.5 0.30001,1.651 0.30001,1.65 0.14988,1.65 0.14989,1.651 0.14988,1.65 0.14988,1.65 0,1.65 0,1.651 0,1.8 0,1.65 -0.14988,1.65 -0.14988,1.651 -0.14989,1.65 -0.14988,1.65 -0.30001,1.651 -0.30001,1.65001 -0.30001,1.49999 -0.45,1.65001 -0.9,3.00101 -0.899,3.15 -1.2,3.00097 -1.2,2.85002 -1.5,2.85098 -1.5,2.7 -1.649,2.70103 -1.8,2.54997 -1.8,2.40102 -2.1,2.39999 -2.099,2.39999 -2.25,2.101 -2.25,2.10001 -2.399,1.94999 -2.55,1.80103 -2.54901,1.64997 -2.7,1.65002 -2.7,1.35099 -2.84899,1.35 -2.85,1.20001 -2.999,1.04999 -1.5,0.45 -1.5,0.45 -1.5,0.30012 -1.649,0.45 -1.5,0.30011 -1.50001,0.14989 -1.64999,0.30118 -1.649,0.14988 -1.5,0.14988 -1.65,0.14988 -1.65,0 -1.649,0 -1.65,0 -1.65,0 -1.65,-0.14988 -1.499,-0.14988 -1.65001,-0.14988 -1.64999,-0.30118 -1.50001,-0.14989 -1.64899,-0.30011 -1.5,-0.45 -1.50001,-0.30012 -1.49999,-0.45 -1.499,-0.45 -3,-1.04999 -2.85,-1.20001 -2.849,-1.35 -2.7,-1.35099 -2.699,-1.65002 -2.55001,-1.64997 -2.54999,-1.80103 -2.399,-1.94999 -2.25,-2.10001 -2.25,-2.101 -2.099,-2.39999 -2.10001,-2.39999 -1.8,-2.40102 -1.79899,-2.54997 -1.65,-2.70103 -1.5,-2.7 -1.50001,-2.85098 -1.19899,-2.85002 -1.2,-3.00097 -0.9,-3.15 -0.9,-3.00101 -0.45,-1.65001 -0.30002,-1.49999 -0.30001,-1.65001 -0.30001,-1.651 -0.14999,-1.65 -0.14999,-1.65 -0.14998,-1.651 -0.14999,-1.65 0,-1.65 -0.14999,-1.8 0.14999,0.14999 z"
         style="fill:#aad400;fill-opacity:1;fill-rule:evenodd;stroke:none" />
      <path
         inkscape:connector-curvature="0"
         id="path4147"
         d="m 64.344017,382.86427 0,-1.801 0,-1.65 0.149882,-1.65 0.149988,-1.65 0.149988,-1.651 0.149988,-1.65 0.299906,-1.65 0.300011,-1.651 0.299906,-1.5 0.45,-1.65 0.899802,-3.001 0.8999,-3.15 1.1998,-3.001 1.199799,-2.85 1.4998,-2.851 1.499801,-2.7 1.6497,-2.701 1.799801,-2.55 1.799699,-2.4 2.0997,-2.401 2.099601,-2.25 2.249699,-2.25 2.249698,-2.101 2.399602,-1.95 2.549601,-1.8 2.549597,-1.651 2.6996,-1.65 2.699604,-1.35 2.8496,-1.35 2.8495,-1.201 2.9999,-1.05 1.499,-0.45 1.5,-0.45 1.5,-0.30001 1.5,-0.45 1.65,-0.30001 1.499,-0.14999 1.65,-0.30001 1.65,-0.14999 1.5,-0.14999 1.649,-0.14999 1.65,0 1.65,-0.14998 1.65,0.14998 1.649,0 1.65,0.14999 1.5,0.14999 1.65,0.14999 1.649,0.30001 1.5,0.14999 1.65,0.30001 1.5,0.45 1.499,0.30001 1.5,0.45 1.5,0.45 2.999,1.05 2.85,1.201 2.85,1.35 2.699,1.35 2.7,1.65 2.549,1.651 2.55,1.8 2.4,1.95 2.249,2.101 2.25,2.25 2.1,2.25 2.099,2.401 1.8,2.4 1.8,2.55 1.65,2.701 1.499,2.7 1.5,2.851 1.2,2.85 1.2,3.001 0.9,3.15 0.899,3.001 0.45,1.65 0.30001,1.5 0.30001,1.651 0.30001,1.65 0.14999,1.65 0.14999,1.651 0.14999,1.65 0.14999,1.65 0,1.65 0,1.651 0,1.8 0,1.65 -0.14999,1.65 -0.14999,1.651 -0.14999,1.65 -0.14999,1.65 -0.30001,1.65101 -0.30001,1.64998 -0.30001,1.50002 -0.45,1.64998 -0.899,3.001 -0.9,3.15 -1.2,3.00101 -1.2,2.84999 -1.5,2.85101 -1.499,2.7 -1.65,2.70099 -1.8,2.55002 -1.8,2.40098 -2.099,2.40002 -2.1,2.39999 -2.25,2.101 -2.249,2.10001 -2.4,1.94999 -2.55,1.80099 -2.549,1.65002 -2.7,1.65001 -2.699,1.35099 -2.85,1.35 -2.85,1.19998 -2.999,1.05002 -1.5,0.45 -1.5,0.45 -1.499,0.30012 -1.65,0.45 -1.5,0.30012 -1.5,0.14988 -1.649,0.30083 -1.65,0.14988 -1.5,0.14988 -1.65,0.14988 -1.649,0 -1.65,0 -1.65,0 -1.65,0 -1.649,-0.14988 -1.5,-0.14988 -1.65,-0.14988 -1.65,-0.30083 -1.499,-0.14988 -1.65,-0.30012 -1.5,-0.45 -1.5,-0.30012 -1.5,-0.45 -1.499,-0.45 -2.9999,-1.05002 -2.8495,-1.19998 -2.8496,-1.35 -2.699604,-1.35099 -2.6996,-1.65001 -2.549597,-1.65002 -2.549601,-1.80099 -2.399602,-1.94999 -2.249698,-2.10001 -2.249699,-2.101 -2.099601,-2.39999 -2.0997,-2.40002 -1.799699,-2.40098 -1.799801,-2.55002 -1.6497,-2.70099 -1.499801,-2.7 -1.4998,-2.85101 -1.199799,-2.84999 -1.1998,-3.00101 -0.8999,-3.15 -0.899802,-3.001 -0.45,-1.64998 -0.299906,-1.50002 -0.300011,-1.64998 -0.299906,-1.65101 -0.149988,-1.65 -0.149988,-1.65 -0.149988,-1.651 -0.149882,-1.65 0,-1.65 -0.149988,-1.8 0.149988,0.14999 z"
         style="fill:#aad400;fill-opacity:1;fill-rule:evenodd;stroke:none" />
      <path
         inkscape:connector-curvature="0"
         id="path4149"
         d="m 8.8524247,212.13527 0,-1.8 0,-1.651 0.1499768,-1.65 0.1499769,-1.65 0.1499769,-1.65 0.14998,-1.651 0.2999498,-1.65 0.2999599,-1.65 0.29995,-1.5 0.44993,-1.651 0.89987,-3 0.89986,-3.151 1.19982,-3 1.19981,-2.851 1.499781,-2.85 1.499769,-2.701 1.649781,-2.7 1.799699,-2.551 1.7997,-2.4 2.0997,-2.4 2.0997,-2.251 2.2496,-2.25 2.249701,-2.1 2.399599,-1.951 2.5496,-1.8 2.549701,-1.65 2.6995,-1.651 2.6996,-1.35 2.849599,-1.35 2.849602,-1.2 2.999498,-1.05 1.4998,-0.451 1.4998,-0.45 1.499702,-0.30001 1.4998,-0.45 1.6497,-0.30001 1.4998,-0.14999 1.6498,-0.30001 1.6497,-0.14999 1.4998,-0.14999 1.6497,-0.14999 1.649799,0 1.6497,-0.14998 1.6498,0.14998 1.6497,0 1.649799,0.14999 1.4998,0.14999 1.6497,0.14999 1.649799,0.30001 1.499702,0.14999 1.649799,0.30001 1.499701,0.45 1.4998,0.30001 1.499801,0.45 1.4998,0.451 2.999498,1.05 2.849602,1.2 2.849503,1.35 2.6996,1.35 2.6996,1.651 2.5496,1.65 2.5492,1.8 2.4,1.951 2.25,2.1 2.249,2.25 2.1,2.251 2.1,2.4 1.799,2.4 1.8,2.551 1.65,2.7 1.5,2.701 1.49999,2.85 1.19901,2.851 1.19999,3 0.9,3.151 0.9,3 0.45,1.651 0.30002,1.5 0.30001,1.65 0.30001,1.65 0.14999,1.651 0.14999,1.65 0.14998,1.65 0.14999,1.65 0,1.651 0,1.65 0,1.8 0,1.651 -0.14999,1.65 -0.14998,1.65 -0.14999,1.65 -0.14999,1.651 -0.30001,1.65 -0.30001,1.65 -0.30002,1.501 -0.45,1.65 -0.9,3 -0.9,3.151 -1.19999,3 -1.19901,2.851 -1.49999,2.85 -1.5,2.701 -1.65,2.7 -1.8,2.551 -1.799,2.4 -2.1,2.4 -2.1,2.401 -2.249,2.1 -2.25,2.101 -2.4,1.95 -2.5492,1.8 -2.5496,1.65 -2.6996,1.651 -2.6996,1.35 -2.849503,1.35 -2.849602,1.2 -2.999498,1.051 -1.4998,0.45 -1.499801,0.45 -1.4998,0.30001 -1.6497,0.45 -1.4998,0.30001 -1.499702,0.14999 -1.649799,0.30001 -1.6497,0.14999 -1.4998,0.14999 -1.649799,0.14999 -1.6497,0 -1.6498,0 -1.6497,0 -1.649799,0 -1.6497,-0.14999 -1.4998,-0.14999 -1.6497,-0.14999 -1.6498,-0.30001 -1.4998,-0.14999 -1.6497,-0.30001 -1.4998,-0.45 -1.499702,-0.30001 -1.4998,-0.45 -1.4998,-0.45 -2.999498,-1.051 -2.849602,-1.2 -2.849599,-1.35 -2.6996,-1.35 -2.6995,-1.651 -2.549701,-1.65 -2.5496,-1.8 -2.399599,-1.95 -2.2497,-2.101 -2.2496,-2.1 -2.0997,-2.401 -2.0997,-2.4 -1.7997,-2.4 -1.7997,-2.551 -1.64978,-2.7 -1.49977,-2.701 -1.49978,-2.85 -1.19981,-2.851 -1.19982,-3 -0.89986,-3.151 -0.89987,-3 -0.44993,-1.65 -0.29995,-1.501 -0.2999603,-1.65 -0.29995,-1.65 -0.14998,-1.651 -0.149977,-1.65 -0.149977,-1.65 -0.1499769,-1.65 0,-1.651 -0.1499768,-1.8 0.1499768,0.14999 z"
         style="fill:#aad400;fill-opacity:1;fill-rule:evenodd;stroke:none" />
    </g>
  </g>
</svg>
